<?xml version="1.0" standalone="no"?>
<!DOCTYPE svg PUBLIC "-//W3C//DTD SVG 20010904//EN"
 "http://www.w3.org/TR/2001/REC-SVG-20010904/DTD/svg10.dtd">
<svg version="1.0" xmlns="http://www.w3.org/2000/svg"
 width="700.000000pt" height="700.000000pt" viewBox="0 0 700.000000 700.000000"
 preserveAspectRatio="xMidYMid meet">
<metadata>
Created by potrace 1.11, written by Peter Selinger 2001-2013
</metadata>
<g transform="translate(0.000000,700.000000) scale(0.100000,-0.100000)"
fill="#000000" stroke="none">
<path d="M20 3500 l0 -3500 613 0 612 0 0 3498 0 3497 -613 3 -612 2 0 -3500z"/>
<path d="M2099 6978 c-1 -32 -1 -6939 0 -6960 1 -17 37 -18 604 -18 l602 0 -1
2033 c0 1781 -4 2135 -19 2297 -2 19 -6 71 -10 115 -7 99 -49 397 -73 528
l-18 97 31 0 31 0 108 -252 c59 -139 117 -273 128 -297 10 -24 28 -66 39 -94
11 -28 28 -69 38 -91 10 -23 65 -149 121 -281 56 -132 110 -258 120 -280 10
-22 82 -191 160 -375 78 -184 150 -353 160 -375 10 -22 64 -148 120 -280 278
-654 623 -1464 639 -1500 10 -22 109 -254 221 -515 111 -261 213 -499 226
-528 13 -29 24 -55 24 -57 0 -3 14 -36 31 -75 l32 -70 793 0 794 0 0 3500 0
3500 -598 0 -598 0 2 -2092 c1 -1151 4 -2129 7 -2173 4 -44 9 -123 12 -175 4
-52 8 -108 10 -125 2 -16 6 -59 10 -95 11 -110 23 -200 32 -245 2 -11 6 -41
10 -66 5 -45 5 -46 -20 -46 -23 0 -30 11 -75 116 -138 322 -616 1440 -628
1469 -22 51 -40 92 -73 172 -18 41 -40 93 -51 115 -10 22 -24 53 -30 69 -11
30 -290 687 -315 741 -7 17 -174 406 -370 865 -196 459 -364 853 -374 875 -10
22 -71 165 -136 318 l-118 277 -799 0 -798 0 -1 -22z"/>
</g>
</svg>
