<?xml version="1.0" encoding="utf-8"?>
<!-- Generator: Adobe Illustrator 16.0.0, SVG Export Plug-In . SVG Version: 6.00 Build 0)  -->
<!DOCTYPE svg PUBLIC "-//W3C//DTD SVG 1.1//EN" "http://www.w3.org/Graphics/SVG/1.1/DTD/svg11.dtd">
<svg version="1.1" id="Layer_1" xmlns="http://www.w3.org/2000/svg" xmlns:xlink="http://www.w3.org/1999/xlink" x="0px" y="0px"
	 width="250px" height="125.435px" viewBox="0 0 250 125.435" enable-background="new 0 0 250 125.435" xml:space="preserve">
<g>
	<g>
		<path fill="#93A23A" d="M20.729,87.484V47.076h7.074v40.408H20.729z"/>
		<path fill="#93A23A" d="M49.026,56.115c0.914,0,1.805,0.142,2.67,0.426l-0.854,7.118c-0.521-0.173-1.209-0.259-2.032-0.259
			c-1.777,0-3.158,0.698-4.11,2.095c-0.954,1.425-1.431,3.469-1.431,6.16v15.829h-7.358V56.702h6.041l0.834,4.807h0.244
			c0.824-1.931,1.709-3.322,2.669-4.145C46.652,56.542,47.772,56.115,49.026,56.115z"/>
		<path fill="#93A23A" d="M54.738,48.649c0-1.215,0.352-2.174,1.056-2.878c0.703-0.703,1.697-1.056,2.98-1.056
			c1.192,0,2.146,0.353,2.861,1.056c0.715,0.704,1.073,1.664,1.073,2.878c0,1.262-0.37,2.232-1.107,2.926
			c-0.738,0.697-1.68,1.037-2.827,1.037c-1.219,0-2.195-0.34-2.93-1.037C55.107,50.881,54.738,49.911,54.738,48.649z M62.386,87.484
			h-7.359V56.702h7.359V87.484z"/>
		<path fill="#93A23A" d="M84.035,87.484V69.152c0-2.236-0.272-3.917-0.818-5.071c-0.517-1.153-1.385-1.715-2.59-1.715
			c-1.587,0-2.748,0.801-3.485,2.374c-0.738,1.573-1.107,4.224-1.107,7.954v14.79h-7.359V56.702h5.848l0.869,3.95h0.474
			c0.668-1.408,1.61-2.521,2.848-3.339c1.237-0.789,2.68-1.198,4.354-1.198c2.8,0,4.883,0.954,6.275,2.89
			c1.402,1.909,2.089,4.707,2.089,8.397v20.082H84.035z"/>
		<path fill="#93A23A" d="M112.475,87.484l-1.465-4.184h-0.176c-1.085,1.8-2.214,3.049-3.361,3.718
			c-1.176,0.69-2.641,1.034-4.395,1.034c-2.283,0-4.054-0.845-5.361-2.541c-1.299-1.709-1.953-4.056-1.953-7.08
			c0-3.25,0.891-5.652,2.686-7.225c1.767-1.573,4.418-2.447,7.955-2.623l4.106-0.162v-2.2c0-2.891-1.25-4.321-3.748-4.321
			c-1.844,0-3.947,0.715-6.359,2.146l-2.538-5.076c3.059-1.931,6.393-2.896,9.982-2.896c3.27,0,5.739,0.926,7.448,2.805
			c1.709,1.85,2.562,4.52,2.562,7.949v20.655H112.475z M106.082,82.301c1.344,0,2.413-0.602,3.229-1.806
			c0.79-1.211,1.2-2.816,1.2-4.837v-2.598l-2.284,0.12c-1.668,0.094-2.901,0.57-3.673,1.438c-0.79,0.87-1.187,2.146-1.187,3.861
			C103.367,81.018,104.281,82.301,106.082,82.301z"/>
		<path fill="#93A23A" d="M152.53,87.484h-9.158l-12.496-29.263h-0.362c0.463,2.237,0.69,4.623,0.69,7.183v22.08h-6.971V47.076
			h9.244l12.375,28.974h0.309c-0.348-1.93-0.525-4.23-0.525-6.898V47.076h6.895V87.484z"/>
		<path fill="#93A23A" d="M174.321,87.484l-1.464-4.184h-0.172c-1.09,1.8-2.213,3.049-3.37,3.718
			c-1.165,0.69-2.629,1.034-4.395,1.034c-2.262,0-4.05-0.845-5.343-2.541c-1.309-1.709-1.947-4.056-1.947-7.08
			c0-3.25,0.878-5.652,2.664-7.225c1.769-1.573,4.438-2.447,7.979-2.623l4.083-0.162v-2.2c0-2.891-1.249-4.321-3.724-4.321
			c-1.84,0-3.966,0.715-6.359,2.146l-2.545-5.076c3.05-1.931,6.381-2.896,9.982-2.896c3.257,0,5.741,0.926,7.444,2.805
			c1.702,1.85,2.56,4.52,2.56,7.949v20.655H174.321z M167.929,82.301c1.35,0,2.419-0.602,3.23-1.806
			c0.794-1.211,1.198-2.816,1.198-4.837v-2.598l-2.259,0.12c-1.693,0.094-2.924,0.57-3.696,1.438
			c-0.786,0.87-1.181,2.146-1.181,3.861C165.221,81.018,166.133,82.301,167.929,82.301z"/>
		<path fill="#93A23A" d="M185.403,48.649c0-1.215,0.348-2.174,1.058-2.878c0.72-0.703,1.709-1.056,2.974-1.056
			c1.192,0,2.153,0.353,2.884,1.056c0.716,0.704,1.08,1.664,1.08,2.878c0,1.262-0.375,2.232-1.112,2.926
			c-0.738,0.697-1.681,1.037-2.852,1.037c-1.215,0-2.192-0.34-2.93-1.037C185.768,50.881,185.403,49.911,185.403,48.649z
			 M193.053,87.484h-7.341V56.702h7.341V87.484z"/>
		<path fill="#93A23A" d="M206.72,87.484h-7.358V44.495h7.358V87.484z"/>
		<path fill="#93A23A" d="M229.408,78.48c0,3.001-0.883,5.343-2.653,7.032c-1.747,1.701-4.343,2.541-7.772,2.541
			c-3.033,0-5.542-0.595-7.54-1.809v-6.373c1.021,0.693,2.197,1.267,3.55,1.734c1.361,0.469,2.547,0.696,3.575,0.696
			c1.142,0,2.012-0.289,2.612-0.84c0.6-0.58,0.904-1.32,0.904-2.231c0-0.931-0.322-1.771-0.955-2.464
			c-0.609-0.693-1.764-1.55-3.44-2.572c-2.229-1.323-3.834-2.724-4.8-4.235c-0.964-1.511-1.447-3.271-1.447-5.322
			c0-2.614,0.898-4.687,2.697-6.225c1.793-1.523,4.256-2.296,7.385-2.296c2.731,0,5.304,0.715,7.712,2.173l-2.396,5.259
			c-1.978-1.061-3.714-1.597-5.213-1.597c-0.932,0-1.629,0.244-2.095,0.739c-0.478,0.5-0.721,1.107-0.721,1.826
			c0,0.849,0.295,1.585,0.868,2.211c0.596,0.654,1.676,1.451,3.265,2.425c1.908,1.146,3.257,2.135,4.033,2.935
			c0.759,0.83,1.359,1.737,1.793,2.782C229.183,75.886,229.408,77.089,229.408,78.48z"/>
	</g>
	<path fill="#121212" d="M163.193,19.846c0,2.505-2.013,4.512-4.517,4.512h-1.13c-2.481,0-4.518-2.007-4.518-4.512V4.512
		c0-2.498,2.036-4.512,4.518-4.512h1.13c2.504,0,4.517,2.014,4.517,4.512V19.846z"/>
	<path fill="#3493D0" d="M97.748,19.846c0,2.505-2.007,4.512-4.512,4.512h-1.134c-2.477,0-4.513-2.007-4.513-4.512V4.512
		C87.589,2.014,89.626,0,92.103,0h1.134c2.504,0,4.512,2.014,4.512,4.512V19.846z"/>
	<path fill="#93A23A" d="M130.473,19.846c0,2.505-2.012,4.512-4.517,4.512h-1.13c-2.48,0-4.517-2.007-4.517-4.512V4.512
		c0-2.498,2.036-4.512,4.517-4.512h1.13c2.505,0,4.517,2.014,4.517,4.512V19.846z"/>
	<path fill="#5D5E5E" d="M114.108,19.846c0,2.505-2.007,4.512-4.512,4.512h-1.134c-2.477,0-4.513-2.007-4.513-4.512V4.512
		c0-2.498,2.036-4.512,4.513-4.512h1.134c2.505,0,4.512,2.014,4.512,4.512V19.846z"/>
	<path fill="#EB687C" d="M146.832,19.846c0,2.505-2.012,4.512-4.516,4.512h-1.13c-2.481,0-4.517-2.007-4.517-4.512V4.512
		c0-2.498,2.035-4.512,4.517-4.512h1.13c2.504,0,4.516,2.014,4.516,4.512V19.846z"/>
	<g>
		<path fill="#5D5E5E" d="M52.192,120.342h-2.448v-9.375c-0.214,1.124-0.488,2.377-0.854,3.77l-1.501,5.605H45.04l-1.512-5.63
			c-0.315-1.207-0.607-2.464-0.849-3.746v9.375H40.27v-11.534h3.98l1.388,5.388c0.318,1.204,0.487,2.321,0.563,3.35
			c0.005-0.349,0.097-0.844,0.218-1.487c0.12-0.641,0.26-1.251,0.394-1.863l1.448-5.388h3.93V120.342z"/>
		<path fill="#5D5E5E" d="M60.171,120.342l-0.54-1.573h-0.073c-0.415,0.678-0.823,1.155-1.27,1.409
			c-0.427,0.245-0.977,0.365-1.638,0.365c-0.849,0-1.531-0.31-2.019-0.951c-0.486-0.634-0.73-1.504-0.73-2.646
			c0-1.215,0.354-2.13,1.005-2.716c0.68-0.587,1.672-0.903,3.005-0.98l1.521-0.048v-0.836c0-1.089-0.461-1.611-1.39-1.611
			c-0.705,0-1.484,0.267-2.394,0.797l-0.948-1.896c1.144-0.724,2.383-1.086,3.731-1.086c1.224,0,2.172,0.347,2.79,1.042
			c0.646,0.694,0.971,1.691,0.971,2.992v7.738H60.171z M57.788,118.395c0.501,0,0.89-0.222,1.205-0.666
			c0.285-0.474,0.442-1.075,0.442-1.824v-0.977l-0.849,0.045c-0.633,0.043-1.088,0.207-1.393,0.551
			c-0.277,0.315-0.429,0.797-0.429,1.448C56.763,117.921,57.095,118.395,57.788,118.395z"/>
		<path fill="#5D5E5E" d="M67.188,108.809v4.494h3.106v-4.494h2.771v11.534h-2.771v-4.83h-3.106v4.83h-2.774v-11.534H67.188z"/>
		<path fill="#5D5E5E" d="M77.947,108.809v5.342c0,0.658-0.074,1.754-0.249,3.31l3.772-8.652h3.37v11.534h-2.572v-5.416
			c0-0.835,0.07-1.934,0.237-3.296l-3.757,8.712h-3.36v-11.534H77.947z"/>
		<path fill="#5D5E5E" d="M92.893,108.809h2.896l-3.158,5.467l3.373,6.066h-3.046l-3.023-5.929v5.929h-2.745v-11.534h2.745v5.512
			L92.893,108.809z"/>
		<path fill="#5D5E5E" d="M110.26,114.563c0,1.889-0.382,3.366-1.144,4.405c-0.763,1.068-1.83,1.576-3.221,1.576
			c-1.222,0-2.202-0.436-2.951-1.333c-0.75-0.866-1.197-2.109-1.313-3.699h-1.698v4.83h-2.745v-11.534h2.745v4.494h1.723
			c0.151-1.499,0.584-2.645,1.329-3.491c0.746-0.819,1.73-1.23,2.954-1.23c1.365,0,2.415,0.515,3.178,1.569
			C109.878,111.177,110.26,112.648,110.26,114.563z M104.429,114.563c0,2.432,0.489,3.646,1.483,3.646
			c0.534,0,0.922-0.323,1.163-0.939c0.241-0.616,0.362-1.508,0.362-2.708c0-1.22-0.121-2.12-0.362-2.715
			c-0.241-0.594-0.629-0.906-1.163-0.906c-0.506,0-0.879,0.312-1.121,0.906C104.551,112.443,104.429,113.344,104.429,114.563z"/>
		<path fill="#5D5E5E" d="M117.351,120.544c-0.5,0-0.958-0.113-1.322-0.333c-0.382-0.219-0.737-0.622-1.089-1.178h-0.131
			c0.118,0.931,0.157,1.511,0.157,1.698v4.705h-2.771v-16.626h2.125l0.488,1.482h0.121c0.579-1.129,1.406-1.71,2.497-1.71
			c1.045,0,1.882,0.515,2.473,1.569c0.59,1.027,0.89,2.499,0.89,4.414c0,1.854-0.313,3.323-0.929,4.396
			C119.243,120.027,118.407,120.544,117.351,120.544z M116.502,110.916c-0.551,0-0.945,0.252-1.183,0.756
			c-0.237,0.504-0.364,1.329-0.381,2.505v0.361c0,1.255,0.121,2.197,0.362,2.771s0.65,0.875,1.216,0.875
			c0.976,0,1.459-1.222,1.459-3.669c0-1.198-0.12-2.107-0.362-2.697C117.37,111.226,117.005,110.916,116.502,110.916z"/>
		<path fill="#5D5E5E" d="M126.015,118.107c-0.362,1.408-0.965,3.05-1.827,4.983h-2.106c0.44-1.84,0.785-3.58,1.035-5.221h2.744
			L126.015,118.107z"/>
		<path fill="#5D5E5E" d="M142.357,108.809v11.534h-2.775v-9.32h-3.132v9.32h-2.75v-11.534H142.357z"/>
		<path fill="#5D5E5E" d="M148.961,120.544c-1.438,0-2.591-0.493-3.413-1.531c-0.835-1.03-1.256-2.487-1.256-4.35
			c0-1.925,0.377-3.396,1.132-4.484c0.753-1.064,1.802-1.598,3.148-1.598c1.264,0,2.245,0.466,2.977,1.368
			c0.729,0.93,1.096,2.2,1.096,3.867v1.473h-5.553c0.019,1.014,0.228,1.786,0.633,2.291c0.404,0.503,0.947,0.756,1.646,0.756
			c0.904,0,1.818-0.289,2.773-0.841v2.262C151.25,120.299,150.202,120.544,148.961,120.544z M148.554,110.705
			c-0.405,0-0.726,0.201-0.975,0.631c-0.259,0.419-0.418,1.058-0.444,1.94h2.8c-0.017-0.84-0.149-1.486-0.387-1.908
			C149.303,110.916,148.983,110.705,148.554,110.705z"/>
		<path fill="#5D5E5E" d="M164.33,124.451h-2.749v-4.108h-5.264v4.108h-2.724v-6.268h0.685c0.568-1.115,0.995-2.48,1.315-4.096
			c0.334-1.6,0.532-3.366,0.619-5.279h6.604v9.375h1.513V124.451z M160.03,118.183v-7.19h-1.357
			c-0.267,2.969-0.771,5.385-1.508,7.19H160.03z"/>
		<path fill="#5D5E5E" d="M168.357,108.809v5.342c0,0.658-0.083,1.754-0.249,3.31l3.748-8.652h3.375v11.534h-2.562v-5.416
			c0-0.835,0.079-1.934,0.244-3.296l-3.778,8.712h-3.331v-11.534H168.357z"/>
		<path fill="#5D5E5E" d="M183.288,108.809h2.912l-3.159,5.467l3.35,6.066h-3.033l-3.013-5.929v5.929h-2.765v-11.534h2.765v5.512
			L183.288,108.809z"/>
		<path fill="#5D5E5E" d="M200.646,114.563c0,1.889-0.377,3.366-1.121,4.405c-0.757,1.068-1.833,1.576-3.223,1.576
			c-1.232,0-2.223-0.436-2.973-1.333c-0.749-0.866-1.167-2.109-1.288-3.699h-1.697v4.83h-2.765v-11.534h2.765v4.494h1.723
			c0.134-1.499,0.589-2.645,1.334-3.491c0.745-0.819,1.729-1.23,2.95-1.23c1.341,0,2.417,0.515,3.174,1.569
			C200.269,111.177,200.646,112.648,200.646,114.563z M194.815,114.563c0,2.432,0.504,3.646,1.512,3.646
			c0.512,0,0.894-0.323,1.135-0.939c0.241-0.616,0.366-1.508,0.366-2.708c0-1.22-0.125-2.12-0.366-2.715
			c-0.241-0.594-0.623-0.906-1.135-0.906c-0.525,0-0.903,0.312-1.148,0.906C194.941,112.443,194.815,113.344,194.815,114.563z"/>
		<path fill="#5D5E5E" d="M207.736,120.544c-0.499,0-0.929-0.113-1.32-0.333c-0.384-0.219-0.734-0.622-1.063-1.178h-0.146
			c0.104,0.931,0.173,1.511,0.173,1.698v4.705h-2.8v-16.626h2.147l0.479,1.482h0.121c0.57-1.129,1.397-1.71,2.497-1.71
			c1.049,0,1.867,0.515,2.462,1.569c0.588,1.027,0.896,2.499,0.896,4.414c0,1.854-0.308,3.323-0.917,4.396
			C209.653,120.027,208.802,120.544,207.736,120.544z M206.892,110.916c-0.531,0-0.924,0.252-1.161,0.756
			c-0.237,0.504-0.359,1.329-0.377,2.505v0.361c0,1.255,0.116,2.197,0.357,2.771s0.649,0.875,1.198,0.875
			c0.968,0,1.453-1.222,1.453-3.669c0-1.198-0.119-2.107-0.357-2.697C207.769,111.226,207.392,110.916,206.892,110.916z"/>
	</g>
	<g>
		<path fill="#EB687C" d="M30.798,113.137H10.212c-3.03,0-5.505-2.476-5.505-5.506v-87.26c0-3.03,2.475-5.506,5.505-5.506h67.486
			v-4.707H10.212C4.578,10.158,0,14.73,0,20.371v87.26c0,5.64,4.578,10.228,10.212,10.228h20.586V113.137z"/>
		<path fill="#EB687C" d="M239.787,10.158h-66.168v4.707h66.168c3.027,0,5.502,2.476,5.502,5.506v87.26
			c0,3.03-2.475,5.506-5.502,5.506h-20.586v4.722h20.586c5.639,0,10.213-4.587,10.213-10.228v-87.26
			C250,14.73,245.426,10.158,239.787,10.158z"/>
	</g>
</g>
</svg>
