<?xml version="1.0" encoding="utf-8"?>
<!-- Generator: Adobe Illustrator 16.0.0, SVG Export Plug-In . SVG Version: 6.00 Build 0)  -->
<!DOCTYPE svg PUBLIC "-//W3C//DTD SVG 1.1//EN" "http://www.w3.org/Graphics/SVG/1.1/DTD/svg11.dtd">
<svg version="1.1" id="Layer_1" xmlns="http://www.w3.org/2000/svg" xmlns:xlink="http://www.w3.org/1999/xlink" x="0px" y="0px"
	 width="77.551px" height="25px" viewBox="0 0 77.551 25" enable-background="new 0 0 77.551 25" xml:space="preserve">
<path fill="#121212" d="M77.551,20.367c0,2.563-2.075,4.633-4.629,4.633h-1.157c-2.563,0-4.632-2.07-4.632-4.633V4.633
	C67.133,2.07,69.204,0,71.765,0h1.157c2.554,0,4.629,2.07,4.629,4.633V20.367z"/>
<path fill="#3393D0" d="M10.415,20.367c0,2.563-2.07,4.633-4.628,4.633h-1.16C2.075,25,0,22.93,0,20.367V4.633
	C0,2.07,2.075,0,4.627,0h1.159c2.558,0,4.628,2.07,4.628,4.633L10.415,20.367L10.415,20.367z"/>
<path fill="#93A23A" d="M43.982,20.367c0,2.563-2.075,4.633-4.626,4.633h-1.16c-2.556,0-4.626-2.07-4.626-4.633V4.633
	C33.569,2.07,35.64,0,38.196,0h1.16c2.551,0,4.626,2.07,4.626,4.633V20.367z"/>
<path fill="#5D5D5D" d="M27.197,20.367c0,2.563-2.071,4.633-4.626,4.633h-1.16c-2.553,0-4.626-2.07-4.626-4.633V4.633
	C16.785,2.07,18.858,0,21.411,0h1.16c2.556,0,4.626,2.07,4.626,4.633V20.367L27.197,20.367z"/>
<path fill="#EC687C" d="M60.767,20.367c0,2.563-2.075,4.633-4.627,4.633h-1.16c-2.56,0-4.627-2.07-4.627-4.633V4.633
	C50.353,2.07,52.42,0,54.98,0h1.159c2.552,0,4.627,2.07,4.627,4.633L60.767,20.367L60.767,20.367z"/>
</svg>
